The Clinic (2010)(DVDR2DivX)(Nl subs extern) TBS 

Australië
Horror / Thriller
100 minuten

geregisseerd door James Rabbitts
met Tabrett Bethell, Freya Stafford en Andy Whitfield

Beth wordt wakker in een bad vol met ijs in een oud afgelegen slachthuis. Ze komt erachter dat haar baby verwijderd is uit haar lichaam. Als ze bezig is een uitweg te zoeken, komt ze drie vrouwen tegen die in hetzelfde schuitje als haar zitten. De vier vrouwen komen er al snel achter dat het ieder voor zich is, en dat ze zich bevinden in een dodelijk spel.




Storyline:

While traveling across country with her fiancé, Beth wakes alone in an isolated clinic to a mother's worst nightmare. Just how far will she go to save her child?

 

source.........: The Clinic.2010.dvdrip.xvid-jon
Size...........: 1.45 GB
Form...........: DivX
Video codec....: Xvid
Bitrate........: 2126 kbit/s
With & Height..: 720x320
Audio..........: English
Audio code.....: AC3 2.0
Subs...........: Dutch (lossles)
subbing........: SRT
categorie......: Beeld
Bron...........: Retail
Taal ..........: Nederlands ondertiteld (extern)


General
Format                           : DivX
Format/Info                      : Hack of AVI
File size                        : 1.45 GiB
Duration                         : 1h 29mn
Overall bit rate                 : 2 318 Kbps

Video
ID                               : 0
Format                           : MPEG-4 Visual
Format profile                   : Advanced Simple@L5
Format settings, BVOP            : Yes
Format settings, QPel            : No
Format settings, GMC             : No warppoints
Format settings, Matrix          : Default (H.263)
Muxing mode                      : Packed bitstream
Codec ID                         : DX50
Codec ID/Hint                    : DivX 5
Duration                         : 1h 29mn
Bit rate                         : 2 116 Kbps
Width                            : 720 pixels
Height                           : 320 pixels
Display aspect ratio             : 2.25:1
Frame rate                       : 25.000 fps
Color space                      : YUV
Chroma subsampling               : 4:2:0
Bit depth                        : 8 bits
Scan type                        : Progressive
Bits/(Pixel*Frame)               : 0.367
Stream size                      : 1.32 GiB (91%)
Title                            : Video 
Writing library                  : XviD 1.2.1 (UTC 2008-12-04)

Audio
ID                               : 1
Format                           : AC-3
Format/Info                      : Audio Coding 3
Mode extension                   : CM (complete main)
Codec ID                         : 2000
Duration                         : 1h 29mn
Bit rate mode                    : Constant
Bit rate                         : 192 Kbps
Channel(s)                       : 2 channels
Channel positions                : Front: L R
Sampling rate                    : 48.0 KHz
Bit depth                        : 16 bits
Stream size                      : 123 MiB (8%)
Alignment                        : Split accross interleaves
Interleave, duration             : 40 ms (1.00 video frame)
Interleave, preload duration     : 500 ms
Title                            : Audio 
 
http://www.moviemeter.nl/film/61573 
http://www.imdb.com/title/tt1345772